<svg width="2844" height="539" viewBox="0 0 2844 539" fill="none" xmlns="http://www.w3.org/2000/svg">
<path d="M1661.5 497.5V269.5V41.5005M1992.5 497.5V41.5005M1894 269.5H1762.5" stroke="white" stroke-width="83" stroke-linecap="round"/>
<path d="M2523.5 497.5V121.5C2523.5 77.3177 2559.32 41.5005 2603.5 41.5005H2722.5C2766.68 41.5005 2802.5 77.3177 2802.5 121.5V157.027V205.724C2802.5 247.973 2768.25 282.223 2726 282.223C2665.03 282.223 2628.56 350.065 2662.19 400.921L2726.06 497.5" stroke="white" stroke-width="83" stroke-linecap="round"/>
<path d="M1535.5 87.5005C1535.5 62.0954 1514.91 41.5005 1489.5 41.5005H1336.5C1292.32 41.5005 1256.5 77.3177 1256.5 121.5V189.5C1256.5 233.683 1292.32 269.5 1336.5 269.5H1455.5C1499.68 269.5 1535.5 305.317 1535.5 349.5V417.5C1535.5 461.683 1499.68 497.5 1455.5 497.5H1315.5C1282.92 497.5 1256.5 471.085 1256.5 438.5" stroke="white" stroke-width="83" stroke-linecap="round"/>
<path d="M851.5 497.5V311.783M851.5 311.783V166.93C851.5 141.153 862.947 116.827 882.504 101.04L934.632 58.9618C961.715 37.1008 999.151 35.6333 1027.73 55.3122L1094.61 101.353C1117.02 116.784 1130.5 142.904 1130.5 170.893V497.5M851.5 311.783H979.929" stroke="white" stroke-width="83" stroke-linecap="round"/>
<path d="M446.5 41.5005V417.5C446.5 461.683 482.317 497.5 526.5 497.5H666.5C699.085 497.5 725.5 471.085 725.5 438.5" stroke="white" stroke-width="83" stroke-linecap="round"/>
<path d="M320.5 87.5005C320.5 62.0954 299.905 41.5005 274.5 41.5005H121.5C77.3172 41.5005 41.5 77.3177 41.5 121.5V269.5M41.5 269.5V497.5M41.5 269.5H210" stroke="white" stroke-width="83" stroke-linecap="round"/>
<path d="M2397.5 41.5005H2198.5C2154.32 41.5005 2118.5 77.3177 2118.5 121.5V417.5C2118.5 461.683 2154.32 497.5 2198.5 497.5H2397.5M2360.59 269.5H2239.54" stroke="white" stroke-width="83" stroke-linecap="round"/>
</svg>
