<svg width="24" height="24" viewBox="0 0 24 24" fill="none" xmlns="http://www.w3.org/2000/svg">
<path d="M4 16.5C3.3 15.2 3 13.6 3 12C3 7.03 7.03 3 12 3C16.97 3 21 7.03 21 12C21 13.6 20.7 15.2 20 16.5" stroke="white" stroke-width="1.75" stroke-linecap="round"/>
<path d="M12 12L16 8" stroke="white" stroke-width="2" stroke-linecap="round"/>
<path d="M12 14.25C13.2426 14.25 14.25 13.2426 14.25 12C14.25 10.7574 13.2426 9.75 12 9.75C10.7574 9.75 9.75 10.7574 9.75 12C9.75 13.2426 10.7574 14.25 12 14.25Z" fill="white"/>
<path d="M3 19H7M17 19H21" stroke="white" stroke-width="1.5" stroke-linecap="round"/>
</svg>
